<?xml version="1.0" encoding="UTF-8"?>
<svg width="800" height="520" viewBox="0 0 800 520" fill="none" xmlns="http://www.w3.org/2000/svg">
  <rect width="800" height="520" rx="24" fill="url(#bg)" />
+  <defs>
+    <linearGradient id="bg" x1="0" x2="1">
+      <stop offset="0%" stop-color="#1e293b" />
+      <stop offset="100%" stop-color="#2b2350" />
+    </linearGradient>
+    <linearGradient id="g1" x1="0" x2="1">
+      <stop offset="0%" stop-color="#06b6d4" />
+      <stop offset="100%" stop-color="#6366f1" />
+    </linearGradient>
+  </defs>
+  <rect x="48" y="64" width="704" height="392" rx="18" fill="rgba(255,255,255,0.03)" stroke="rgba(255,255,255,0.06)" />
+  <!-- Toolbox -->
+  <rect x="136" y="150" width="220" height="120" rx="12" fill="#0f172a" />
+  <rect x="176" y="170" width="40" height="20" rx="4" fill="#06b6d4" opacity="0.12" />
+  <rect x="224" y="170" width="120" height="20" rx="4" fill="#fff" opacity="0.04" />
+  <!-- Wrench icon -->
+  <g transform="translate(420,170) scale(1.2)">
+    <path d="M20 2c0 0 6 4 2 10s-6 6-6 6l-6 6-8-8 6-6s2-4 8-6C18 4 20 2 20 2z" fill="#9CA3AF" opacity="0.95" />
+    <rect x="2" y="26" width="36" height="10" rx="3" fill="#c7d2fe" opacity="0.14" />
+  </g>
+  <!-- Faucet / Pipe -->
+  <g transform="translate(160,300)">
+    <rect x="0" y="0" width="120" height="12" rx="6" fill="#94a3b8" />
+    <rect x="110" y="-24" width="10" height="36" rx="3" fill="#c7d2fe" />
+    <circle cx="118" cy="-30" r="6" fill="#06b6d4" opacity="0.9" />
+  </g>
+  <!-- Accent circle -->
+  <circle cx="620" cy="96" r="34" fill="url(#g1)" opacity="0.14" />
+  <!-- Title block -->
+  <g transform="translate(120,92)">
+    <rect x="0" y="0" width="420" height="18" rx="8" fill="#fff" opacity="0.04" />
+    <rect x="0" y="28" width="320" height="12" rx="6" fill="#fff" opacity="0.03" />
+  </g>
</svg>
