<svg xmlns="http://www.w3.org/2000/svg" viewBox="0 0 100 100" width="80" height="80" role="img" aria-label="Plumber Services logo">
  <defs>
    <linearGradient id="g" x1="0" x2="1">
      <stop offset="0" stop-color="#059669"/>
      <stop offset="1" stop-color="#10b981"/>
    </linearGradient>
  </defs>
  <rect width="100" height="100" rx="16" fill="url(#g)"/>
  <g transform="translate(18,18) scale(0.64)" fill="#fff">
    <path d="M50.8 9.7c-3.6 0-6.9 1.6-9.2 4.2L30 25.5c-1 1.2-.9 3 .3 4l3.2 2.7c.6.5 1.4.8 2.2.8.6 0 1.2-.2 1.7-.5l11.6-6.9c.9-.6 1.4-1.6 1.4-2.7V14c0-2.8-2.2-4.3-4.2-4.3z"/>
    <path d="M70 55.3c-1.8-1.6-4.5-1.5-6.2.2l-7.3 7.9c-1.9 2-2 5-.2 7 1.8 1.9 4.6 2 6.5.3l7.3-6.9c1.9-1.8 2.1-4.8.2-6.9z"/>
    <path d="M34 36.6l-9.1 9.5c-4.1 4.2-4 10.8.2 14.8 4.1 4 10.6 4.1 14.7.1l9.1-9.6L34 36.6z"/>
  </g>
</svg>
